<?xml version="1.0" encoding="UTF-8" standalone="no"?>
<svg
   width="737.00781pt"
   height="532.91406pt"
   viewBox="0 0 737.0078 532.91404"
   version="1.1"
   id="svg174"
   sodipodi:docname="science-tokyo-en-overview2024.pdf"
   xmlns:inkscape="http://www.inkscape.org/namespaces/inkscape"
   xmlns:sodipodi="http://sodipodi.sourceforge.net/DTD/sodipodi-0.dtd"
   xmlns="http://www.w3.org/2000/svg"
   xmlns:svg="http://www.w3.org/2000/svg">
  <sodipodi:namedview
     id="namedview176"
     pagecolor="#ffffff"
     bordercolor="#000000"
     borderopacity="0.25"
     inkscape:showpageshadow="2"
     inkscape:pageopacity="0.0"
     inkscape:pagecheckerboard="0"
     inkscape:deskcolor="#d1d1d1"
     inkscape:document-units="pt"
     showgrid="false" />
  <defs
     id="defs14">
    <clipPath
       id="clip-0">
      <path
         clip-rule="nonzero"
         d="m 737,0 h 737.0195 V 532.91406 H 737 Z m 0,0"
         id="path2" />
    </clipPath>
    <clipPath
       id="clip-1">
      <path
         clip-rule="nonzero"
         d="M 737.00781,180 H 1474.0156 V 532.91406 H 737.00781 Z m 0,0"
         id="path5" />
    </clipPath>
    <clipPath
       id="clip-2">
      <path
         clip-rule="nonzero"
         d="M 737.00781,0 H 1474.0156 V 383 H 737.00781 Z m 0,0"
         id="path8" />
    </clipPath>
    <clipPath
       id="clip-3">
      <path
         clip-rule="nonzero"
         d="M 737.00781,425 H 1474.0156 V 532.91406 H 737.00781 Z m 0,0"
         id="path11" />
    </clipPath>
  </defs>
  <g
     clip-path="url(#clip-0)"
     id="g18"
     transform="translate(-737.00781)">
    <path
       fill-rule="nonzero"
       fill="#ffffff"
       fill-opacity="1"
       d="M 737.00781,532.91406 H 1474.0156 V 0 H 737.00781 Z m 0,0"
       id="path16" />
  </g>
  <g
     clip-path="url(#clip-1)"
     id="g22"
     transform="translate(-737.00781)">
    <path
       fill-rule="nonzero"
       fill="#7da2d3"
       fill-opacity="1"
       d="M 1591.0508,627.41406 C 1244.8281,468.23047 848.76953,382.62891 439.44141,382.62891 V 180.25 c 424.60937,0 878.41409,112.45312 1151.60939,244.78516 z m 0,0"
       id="path20" />
  </g>
  <g
     clip-path="url(#clip-2)"
     id="g26"
     transform="translate(-737.00781)">
    <path
       fill-rule="nonzero"
       fill="#203c83"
       fill-opacity="1"
       d="M 439.44141,382.63281 C 785.66406,223.44531 1181.7188,137.84375 1591.0469,137.84375 V -64.535156 c -424.6094,0 -878.41409,112.457031 -1151.60549,244.789066 z m 0,0"
       id="path24" />
  </g>
  <g
     clip-path="url(#clip-3)"
     id="g30"
     transform="translate(-737.00781)">
    <path
       fill-rule="nonzero"
       fill="#203c83"
       fill-opacity="1"
       d="M 439.44141,872.19531 C 785.66406,713.01172 1181.7188,627.41016 1591.0469,627.41016 V 425.03125 c -424.6094,0 -878.41409,112.45703 -1151.60549,244.78516 z m 0,0"
       id="path28" />
  </g>
  <path
     fill-rule="nonzero"
     fill="#203c83"
     fill-opacity="1"
     d="m 678.67189,227.23437 c 0,5.37891 2.1875,7.88282 5.5664,7.88282 3.3789,0 5.5703,-2.50391 5.5703,-7.88282 0,-5.38281 -2.1914,-7.88281 -5.5703,-7.88281 -3.3789,0 -5.5664,2.5 -5.5664,7.88281 m 15.7969,0 c 0,7.19532 -3.9727,11.29297 -10.2305,11.29297 -6.2891,0 -10.2578,-4.09765 -10.2578,-11.29297 0,-7.19531 3.9687,-11.29296 10.2578,-11.29296 6.2578,0 10.2305,4.09765 10.2305,11.29296 m -40.293,-10.91796 h 4.8828 l 4.5039,9.25781 h 0.062 l 4.6289,-9.25781 h 4.7227 l -7.2266,13.16796 v 8.66407 h -4.3789 v -8.60157 z m -12.668,11.22656 v 10.60547 h -4.3789 v -21.83203 h 4.3789 v 9.57031 h 0.062 l 6.4453,-9.57031 h 5.0977 l -7.4453,10.19531 9.168,11.63672 h -5.5079 l -7.7578,-10.60547 z m -24.3047,-0.3086 c 0,5.37891 2.1914,7.88282 5.5704,7.88282 3.3789,0 5.5664,-2.50391 5.5664,-7.88282 0,-5.38281 -2.1875,-7.88281 -5.5664,-7.88281 -3.379,0 -5.5704,2.5 -5.5704,7.88281 m 15.7969,0 c 0,7.19532 -3.9726,11.29297 -10.2265,11.29297 -6.2891,0 -10.2618,-4.09765 -10.2618,-11.29297 0,-7.19531 3.9727,-11.29296 10.2618,-11.29296 6.2539,0 10.2265,4.09765 10.2265,11.29296 m -22.1758,-10.91796 v 3.72265 l -5.9765,-0.0312 v 18.14063 h -4.4414 v -18.14063 l -5.9727,0.0312 v -3.72265 z m -37.5703,21.83203 v -21.83203 h 12.4219 v 3.6289 h -8.1055 v 5.22266 h 7.6992 v 3.59765 h -7.6992 v 5.72266 h 8.293 v 3.66016 z m -4.3125,-4.28516 0.125,3.78516 c -1.2226,0.46875 -2.8476,0.71875 -4.6328,0.71875 -6.5351,0 -10.6055,-4.0625 -10.6055,-11.13282 0,-7.07031 4.0704,-11.13671 10.3555,-11.13671 1.7852,0 3.1602,0.125 4.7578,0.75 l -0.2539,3.78515 c -1.375,-0.71875 -2.5625,-0.96875 -4.1914,-0.96875 -3.6289,0 -6.0039,2.3125 -6.0039,7.44531 0,5.16016 2.5,7.59766 6.0352,7.59766 1.5664,0 2.8789,-0.1875 4.414,-0.84375 m -22.9609,-0.375 -0.1875,-17.17187 h 3.9726 v 21.83203 h -5.539 l -7.1016,-17.26563 h -0.062 l 0.1875,17.26563 h -3.9375 v -21.83203 h 5.5977 l 7.039,17.17187 z m -29.5938,4.66016 v -21.83203 h 12.4219 v 3.6289 h -8.1055 v 5.22266 h 7.6954 v 3.59765 h -7.6954 v 5.72266 h 8.293 v 3.66016 z m -5.2539,0 h -4.3789 v -21.83203 h 4.3789 z m -8.6953,-4.28516 0.125,3.78516 c -1.2187,0.46875 -2.8476,0.71875 -4.6289,0.71875 -6.5391,0 -10.6055,-4.0625 -10.6055,-11.13282 0,-7.07031 4.0664,-11.13671 10.3555,-11.13671 1.7813,0 3.1563,0.125 4.7539,0.75 l -0.25,3.78515 c -1.375,-0.71875 -2.5664,-0.96875 -4.1914,-0.96875 -3.6289,0 -6.0078,2.3125 -6.0078,7.44531 0,5.16016 2.5039,7.59766 6.0391,7.59766 1.5625,0 2.8789,-0.1875 4.4101,-0.84375 m -19.4258,-17.14062 -0.3437,3.5664 c -1.6875,-0.6875 -3.0352,-0.9375 -4.3477,-0.9375 -2.2851,0 -3.7226,0.96875 -3.7226,2.46875 0,1.34375 0.7187,2.19141 3.8789,3.34766 3.9726,1.4375 5.6601,3.3164 5.6601,6.53906 0,4.25391 -3.0039,6.82031 -8.0703,6.82031 -2.0312,0 -3.9414,-0.3164 -5.7226,-0.9414 l 0.4062,-3.84766 c 1.8125,0.90625 3.5664,1.25391 5.0664,1.25391 2.4102,0 3.9102,-0.97266 3.9102,-2.72266 0,-1.66016 -0.9063,-2.53516 -4.1289,-3.75391 -3.8164,-1.40625 -5.4414,-3.16015 -5.4414,-6.25781 0,-3.8789 3.0976,-6.3164 7.664,-6.3164 1.9063,0 3.5039,0.21875 5.1914,0.78125 m 62.3907,-16.25391 v -1.39844 h 1.7382 v -0.67969 c 0,-2.125 0.7579,-3.33203 2.7227,-3.33203 0.4336,0 0.8203,0.0469 1.1758,0.14453 l -0.1446,1.46485 c -0.2578,-0.0977 -0.5156,-0.14453 -0.8046,-0.14453 -0.8868,0 -1.1914,0.53125 -1.1914,1.83593 v 0.71094 h 2.0273 v 1.39844 h -2.0273 v 6.82812 h -1.7579 v -6.82812 z m -2.8829,2.70703 c 0,-1.75781 -0.8671,-2.86719 -2.2382,-2.86719 -1.3672,0 -2.2383,1.10938 -2.2383,2.86719 0,1.75391 0.8711,2.86719 2.2383,2.86719 1.3711,0 2.2382,-1.11328 2.2382,-2.86719 m -6.3437,0 c 0,-2.57812 1.6914,-4.31641 4.1055,-4.31641 2.4179,0 4.1093,1.73829 4.1093,4.31641 0,2.57813 -1.6914,4.31641 -4.1093,4.31641 -2.4141,0 -4.1055,-1.73828 -4.1055,-4.31641 m -8.6953,-2.98047 c -1.0469,0 -1.8672,0.71094 -1.9805,2.19141 h 3.7031 c 0,-1.4961 -0.6914,-2.19141 -1.7226,-2.19141 m -3.7852,2.9336 c 0,-2.54688 1.5469,-4.26954 3.8321,-4.26954 2.1757,0 3.4296,1.36719 3.4296,4.30079 0,0.22656 -0.016,0.38671 -0.031,0.54687 h -5.4258 c 0.047,1.43359 1.0469,2.32031 2.543,2.32031 0.8867,0 1.6094,-0.21093 2.3047,-0.6289 l 0.062,1.59375 c -0.6914,0.33984 -1.5782,0.5 -2.5274,0.5 -2.6093,0 -4.1875,-1.625 -4.1875,-4.36328 m -4.9765,1.43359 v -4.09375 h -1.4649 v -1.39844 h 1.4805 v -1.83594 l 1.6914,-0.58203 v 2.41797 h 2.0156 v 1.39844 h -2.0156 v 3.59375 c 0,1.32031 0.2109,1.93359 1.2422,1.93359 0.3047,0 0.5781,-0.0664 0.8203,-0.16406 l 0.047,1.43359 c -0.3711,0.12891 -0.8203,0.21094 -1.3047,0.21094 -1.9141,0 -2.5117,-1.0625 -2.5117,-2.91406 m -10.1446,-0.32422 v -5.18359 h 1.7539 v 4.16797 c 0,1.70703 0.2266,2.7539 1.5977,2.7539 1.207,0 1.9961,-1.2539 1.9961,-2.73828 v -4.18359 h 1.7695 v 5.61718 c 0,1.03125 0.035,1.9336 0.098,2.625 h -1.6758 c -0.047,-0.33593 -0.078,-0.76953 -0.078,-1.30078 h -0.035 c -0.3984,0.85157 -1.2695,1.4961 -2.6562,1.4961 -1.6914,0 -2.7696,-1.22266 -2.7696,-3.25391 m -5.4414,0.32422 v -4.09375 h -1.4687 v -1.39844 h 1.4844 v -1.83594 l 1.6914,-0.58203 v 2.41797 h 2.0117 v 1.39844 h -2.0117 v 3.59375 c 0,1.32031 0.207,1.93359 1.2382,1.93359 0.3047,0 0.5821,-0.0664 0.8243,-0.16406 l 0.047,1.43359 c -0.3711,0.12891 -0.8242,0.21094 -1.3047,0.21094 -1.9179,0 -2.5117,-1.0625 -2.5117,-2.91406 m -3.0781,2.73437 h -1.7852 v -8.24218 h 1.7852 z m 0.051,-9.77343 h -1.8867 v -1.88282 h 1.8867 z m -7.4102,7.03906 v -4.09375 h -1.4648 v -1.39844 h 1.4805 v -1.83594 l 1.6914,-0.58203 v 2.41797 h 2.0156 v 1.39844 h -2.0156 v 3.59375 c 0,1.32031 0.2109,1.93359 1.2421,1.93359 0.3047,0 0.5782,-0.0664 0.8204,-0.16406 l 0.051,1.43359 c -0.3711,0.12891 -0.8242,0.21094 -1.3086,0.21094 -1.914,0 -2.5117,-1.0625 -2.5117,-2.91406 m -7.6328,2.51172 0.1133,-1.53125 c 0.6758,0.37109 1.3711,0.54687 1.9961,0.54687 0.7734,0 1.4023,-0.35156 1.4023,-1.01172 0,-0.61328 -0.3554,-0.88671 -1.5937,-1.41796 -1.4336,-0.61329 -1.9649,-1.21094 -1.9649,-2.33594 0,-1.53125 1.1914,-2.46485 2.9454,-2.46485 0.7265,0 1.4179,0.11329 1.9648,0.33985 l -0.1602,1.44922 c -0.6093,-0.3086 -1.1757,-0.42188 -1.7539,-0.42188 -0.7109,0 -1.2578,0.33985 -1.2578,0.95313 0,0.60937 0.3867,0.85156 1.4649,1.26953 1.4375,0.58203 2.1289,1.22656 2.1289,2.48047 0,1.67578 -1.2735,2.5625 -3.0625,2.5625 -0.8047,0 -1.4961,-0.12891 -2.2227,-0.41797 m -9.082,-8.01953 h 1.707 c 0.035,0.35156 0.051,0.89843 0.051,1.33593 h 0.031 c 0.5157,-0.96875 1.4336,-1.53125 2.5469,-1.53125 2.125,0 2.8633,1.44922 2.8633,3.67188 v 4.76562 h -1.7695 v -4.02343 c 0,-1.67578 -0.1133,-2.91797 -1.5782,-2.91797 -0.6914,0 -1.3046,0.45312 -1.6757,1.1289 -0.2422,0.45313 -0.3555,1.07813 -0.3555,1.98047 v 3.83203 h -1.7539 v -5.75 c 0,-0.83593 0,-1.70312 -0.066,-2.49218 m -2.5586,8.24218 h -1.8828 v -11.23828 h 1.8828 z m 0,0"
     id="path32" />
  <path
     fill-rule="nonzero"
     fill="#203c83"
     fill-opacity="1"
     d="m 452.00779,196.05859 c -17.4765,0 -32.0312,5.05078 -40.207,11.89453 -0.4648,0.39844 -0.7969,0.92969 -0.7969,1.66016 v 12.62891 c 0,-0.26563 0.1992,-0.46485 0.5977,-0.79688 11.2304,-9.03906 25.8515,-11.76562 40.4062,-11.76562 z m 0,0"
     id="path34" />
  <path
     fill-rule="nonzero"
     fill="#203c83"
     fill-opacity="1"
     d="m 452.01169,237.36719 v -12.66407 c 0,0.33204 -0.6015,0.46485 -1.5312,0.53125 -15.086,0.92969 -29.5078,5.58204 -39.4766,12.69141 v 14.88672 c 9.2696,-6.39844 22.7383,-11.88281 35.5156,-13.69141 0.1563,-0.0195 3.2774,-0.47656 3.668,-0.53515 0.4727,-0.0703 1.457,-0.17578 1.7422,-0.79688 0.062,-0.13281 0.082,-0.30469 0.082,-0.42187"
     id="path36" />
  <path
     fill-rule="nonzero"
     fill="#7da2d3"
     fill-opacity="1"
     d="m 452.00779,224.70312 c 0,-0.33203 -0.332,-0.66796 -0.8633,-1.0664 -6.9453,-4.84375 -15.6484,-8.27344 -25.6835,-9.87891 -4.9727,1.80469 -9.6524,4.30078 -13.8594,7.6875 -0.3985,0.33203 -0.5977,0.53125 -0.5977,0.79688 0,0.26562 0.1328,0.33203 0.6641,0.39843 6.5469,0.69922 14.1562,2.4336 21.1562,5.44532 5.6133,-1.5 11.5821,-2.48047 17.6563,-2.85157 0.9297,-0.0664 1.5273,-0.19921 1.5273,-0.53125"
     id="path38" />
</svg>
