<svg version="1.1" xmlns="http://www.w3.org/2000/svg" xmlns:xlink="http://www.w3.org/1999/xlink" width="648" height="600"><defs/><g transform="translate(245.96531791907515,65.89595375722544) scale(1.560693641618497,1.560693641618497)"><path fill="rgb(0,0,255)" stroke="rgb(0,0,0)" paint-order="fill stroke markers" d=" M 20 300 L 19.938346674662558 301.5691819145569 L 19.753766811902757 303.12868930080464 L 19.447398407953532 304.6689072771181 L 19.02113032590307 306.180339887499 L 18.477590650225736 307.6536686473018 L 17.820130483767358 309.07980999479093 L 17.052803287081844 310.44997129431897 L 16.18033988749895 311.7557050458495 L 15.208119312000619 312.98896096660366 L 14.142135623730951 314.14213562373095 L 12.988960966603674 315.20811931200063 L 11.755705045849464 316.180339887499 L 10.449971294318978 317.0528032870818 L 9.079809994790937 317.82013048376734 L 7.653668647301797 318.47759065022575 L 6.180339887498949 319.0211303259031 L 4.66890727711811 319.44739840795353 L 3.1286893008046186 319.7537668119028 L 1.5691819145569 319.93834667466257 L 1.2246467991473533e-15 320 L -1.5691819145568975 319.93834667466257 L -3.1286893008046164 319.7537668119028 L -4.668907277118107 319.44739840795353 L -6.180339887498947 319.0211303259031 L -7.653668647301794 318.47759065022575 L -9.079809994790933 317.82013048376734 L -10.449971294318976 317.0528032870819 L -11.75570504584946 316.180339887499 L -12.98896096660367 315.20811931200063 L -14.14213562373095 314.14213562373095 L -15.208119312000619 312.98896096660366 L -16.180339887498945 311.7557050458495 L -17.052803287081844 310.44997129431897 L -17.820130483767358 309.07980999479093 L -18.477590650225736 307.6536686473018 L -19.02113032590307 306.180339887499 L -19.447398407953532 304.66890727711814 L -19.753766811902754 303.12868930080464 L -19.938346674662558 301.5691819145569 L -20 300 L -19.938346674662558 298.4308180854431 L -19.753766811902757 296.87131069919536 L -19.447398407953532 295.3310927228819 L -19.021130325903073 293.8196601125011 L -18.477590650225736 292.3463313526982 L -17.820130483767358 290.92019000520907 L -17.052803287081847 289.55002870568103 L -16.180339887498953 288.2442949541505 L -15.20811931200062 287.01103903339634 L -14.142135623730955 285.85786437626905 L -12.988960966603681 284.79188068799937 L -11.755705045849465 283.8196601125011 L -10.44997129431897 282.9471967129181 L -9.079809994790923 282.17986951623266 L -7.653668647301774 281.52240934977425 L -6.180339887498918 280.9788696740969 L -4.668907277118068 280.55260159204647 L -3.1286893008045684 280.2462331880972 L -1.5691819145568406 280.06165332533743 L 6.738033317856795e-14 280 L 1.569181914556975 280.06165332533743 L 3.128689300804701 280.2462331880973 L 4.668907277118199 280.55260159204647 L 6.180339887499046 280.978869674097 L 7.653668647301899 281.5224093497743 L 9.079809994791043 282.1798695162327 L 10.449971294319088 282.94719671291824 L 11.755705045849574 283.81966011250114 L 12.988960966603784 284.7918806879995 L 14.142135623731061 285.85786437626916 L 15.208119312000726 287.01103903339646 L 16.180339887499052 288.2442949541507 L 17.05280328708194 289.5500287056812 L 17.820130483767443 290.92019000520924 L 18.477590650225814 292.34633135269837 L 19.021130325903137 293.81966011250125 L 19.44739840795358 295.3310927228821 L 19.753766811902793 296.8713106991956 L 19.938346674662576 298.4308180854433 Z" fill-opacity="1" stroke-opacity="1" stroke-miterlimit="10" stroke-width="4"/><text fill="rgb(255,255,255)" stroke="none" font-family="Helvetica,Arial,sans-serif" font-size="16px" font-style="normal" font-weight="normal" text-decoration="normal" x="0" y="308" text-anchor="middle" dominant-baseline="text-after-edge" fill-opacity="1">a</text><path fill="rgb(0,0,255)" stroke="rgb(0,0,0)" paint-order="fill stroke markers" d=" M 70 300 L 69.93834667466255 301.5691819145569 L 69.75376681190275 303.12868930080464 L 69.44739840795353 304.6689072771181 L 69.02113032590307 306.180339887499 L 68.47759065022574 307.6536686473018 L 67.82013048376736 309.07980999479093 L 67.05280328708184 310.44997129431897 L 66.18033988749895 311.7557050458495 L 65.20811931200062 312.98896096660366 L 64.14213562373095 314.14213562373095 L 62.98896096660367 315.20811931200063 L 61.75570504584947 316.180339887499 L 60.44997129431898 317.0528032870818 L 59.079809994790935 317.82013048376734 L 57.6536686473018 318.47759065022575 L 56.180339887498945 319.0211303259031 L 54.66890727711811 319.44739840795353 L 53.128689300804616 319.7537668119028 L 51.5691819145569 319.93834667466257 L 50 320 L 48.4308180854431 319.93834667466257 L 46.871310699195384 319.7537668119028 L 45.33109272288189 319.44739840795353 L 43.819660112501055 319.0211303259031 L 42.34633135269821 318.47759065022575 L 40.920190005209065 317.82013048376734 L 39.55002870568102 317.0528032870819 L 38.24429495415054 316.180339887499 L 37.01103903339633 315.20811931200063 L 35.85786437626905 314.14213562373095 L 34.79188068799938 312.98896096660366 L 33.819660112501055 311.7557050458495 L 32.947196712918156 310.44997129431897 L 32.17986951623264 309.07980999479093 L 31.522409349774264 307.6536686473018 L 30.97886967409693 306.180339887499 L 30.552601592046468 304.66890727711814 L 30.246233188097246 303.12868930080464 L 30.061653325337442 301.5691819145569 L 30 300 L 30.061653325337442 298.4308180854431 L 30.246233188097243 296.87131069919536 L 30.552601592046468 295.3310927228819 L 30.978869674096927 293.8196601125011 L 31.522409349774264 292.3463313526982 L 32.17986951623264 290.92019000520907 L 32.947196712918156 289.55002870568103 L 33.81966011250105 288.2442949541505 L 34.79188068799938 287.01103903339634 L 35.85786437626905 285.85786437626905 L 37.011039033396315 284.79188068799937 L 38.24429495415053 283.8196601125011 L 39.55002870568103 282.9471967129181 L 40.92019000520908 282.17986951623266 L 42.34633135269823 281.52240934977425 L 43.81966011250108 280.9788696740969 L 45.331092722881934 280.55260159204647 L 46.87131069919543 280.2462331880972 L 48.43081808544316 280.06165332533743 L 50.000000000000064 280 L 51.56918191455698 280.06165332533743 L 53.1286893008047 280.2462331880973 L 54.6689072771182 280.55260159204647 L 56.180339887499045 280.978869674097 L 57.6536686473019 281.5224093497743 L 59.07980999479104 282.1798695162327 L 60.449971294319084 282.94719671291824 L 61.755705045849574 283.81966011250114 L 62.988960966603784 284.7918806879995 L 64.14213562373106 285.85786437626916 L 65.20811931200072 287.01103903339646 L 66.18033988749906 288.2442949541507 L 67.05280328708194 289.5500287056812 L 67.82013048376744 290.92019000520924 L 68.4775906502258 292.34633135269837 L 69.02113032590313 293.81966011250125 L 69.44739840795359 295.3310927228821 L 69.75376681190279 296.8713106991956 L 69.93834667466257 298.4308180854433 Z" fill-opacity="1" stroke-opacity="1" stroke-miterlimit="10" stroke-width="4"/><text fill="rgb(255,255,255)" stroke="none" font-family="Helvetica,Arial,sans-serif" font-size="16px" font-style="normal" font-weight="normal" text-decoration="normal" x="50" y="308" text-anchor="middle" dominant-baseline="text-after-edge" fill-opacity="1">b</text><path fill="rgb(0,0,255)" stroke="rgb(0,0,0)" paint-order="fill stroke markers" d=" M 120 100 L 119.93834667466255 101.56918191455689 L 119.75376681190275 103.12868930080462 L 119.44739840795353 104.66890727711811 L 119.02113032590307 106.18033988749895 L 118.47759065022574 107.6536686473018 L 117.82013048376736 109.07980999479093 L 117.05280328708184 110.44997129431897 L 116.18033988749895 111.75570504584947 L 115.20811931200062 112.98896096660367 L 114.14213562373095 114.14213562373095 L 112.98896096660367 115.20811931200062 L 111.75570504584947 116.18033988749895 L 110.44997129431897 117.05280328708184 L 109.07980999479093 117.82013048376736 L 107.6536686473018 118.47759065022574 L 106.18033988749895 119.02113032590307 L 104.66890727711811 119.44739840795353 L 103.12868930080462 119.75376681190275 L 101.5691819145569 119.93834667466255 L 100 120 L 98.43081808544311 119.93834667466255 L 96.87131069919539 119.75376681190275 L 95.33109272288189 119.44739840795353 L 93.81966011250105 119.02113032590307 L 92.3463313526982 118.47759065022574 L 90.92019000520907 117.82013048376736 L 89.55002870568103 117.05280328708184 L 88.24429495415055 116.18033988749895 L 87.01103903339633 115.20811931200062 L 85.85786437626905 114.14213562373095 L 84.79188068799938 112.98896096660367 L 83.81966011250105 111.75570504584947 L 82.94719671291816 110.44997129431897 L 82.17986951623264 109.07980999479093 L 81.52240934977426 107.6536686473018 L 80.97886967409693 106.18033988749895 L 80.55260159204647 104.66890727711811 L 80.24623318809725 103.12868930080462 L 80.06165332533745 101.5691819145569 L 80 100 L 80.06165332533745 98.43081808544311 L 80.24623318809725 96.87131069919539 L 80.55260159204647 95.33109272288189 L 80.97886967409693 93.81966011250105 L 81.52240934977426 92.3463313526982 L 82.17986951623264 90.92019000520907 L 82.94719671291816 89.55002870568103 L 83.81966011250105 88.24429495415055 L 84.79188068799938 87.01103903339633 L 85.85786437626905 85.85786437626905 L 87.01103903339632 84.7918806879994 L 88.24429495415053 83.81966011250105 L 89.55002870568103 82.94719671291816 L 90.92019000520908 82.17986951623263 L 92.34633135269823 81.52240934977425 L 93.81966011250108 80.97886967409693 L 95.33109272288193 80.55260159204646 L 96.87131069919543 80.24623318809724 L 98.43081808544316 80.06165332533743 L 100.00000000000007 80 L 101.56918191455698 80.06165332533745 L 103.1286893008047 80.24623318809725 L 104.6689072771182 80.55260159204649 L 106.18033988749904 80.97886967409696 L 107.6536686473019 81.5224093497743 L 109.07980999479105 82.1798695162327 L 110.44997129431908 82.94719671291823 L 111.75570504584957 83.81966011250114 L 112.98896096660378 84.79188068799948 L 114.14213562373106 85.85786437626916 L 115.20811931200072 87.01103903339646 L 116.18033988749906 88.24429495415067 L 117.05280328708194 89.55002870568117 L 117.82013048376744 90.92019000520924 L 118.4775906502258 92.34633135269839 L 119.02113032590313 93.81966011250125 L 119.44739840795359 95.3310927228821 L 119.75376681190279 96.8713106991956 L 119.93834667466257 98.43081808544333 Z" fill-opacity="1" stroke-opacity="1" stroke-miterlimit="10" stroke-width="4"/><text fill="rgb(255,255,255)" stroke="none" font-family="Helvetica,Arial,sans-serif" font-size="16px" font-style="normal" font-weight="normal" text-decoration="normal" x="100" y="108" text-anchor="middle" dominant-baseline="text-after-edge" fill-opacity="1">c</text><path fill="rgb(0,0,255)" stroke="rgb(0,0,0)" paint-order="fill stroke markers" d=" M 20 200 L 19.938346674662558 201.5691819145569 L 19.753766811902757 203.1286893008046 L 19.447398407953532 204.6689072771181 L 19.02113032590307 206.18033988749895 L 18.477590650225736 207.6536686473018 L 17.820130483767358 209.07980999479093 L 17.052803287081844 210.44997129431897 L 16.18033988749895 211.75570504584945 L 15.208119312000619 212.98896096660368 L 14.142135623730951 214.14213562373095 L 12.988960966603674 215.20811931200063 L 11.755705045849464 216.18033988749895 L 10.449971294318978 217.05280328708184 L 9.079809994790937 217.82013048376734 L 7.653668647301797 218.47759065022575 L 6.180339887498949 219.02113032590307 L 4.66890727711811 219.44739840795353 L 3.1286893008046186 219.75376681190275 L 1.5691819145569 219.93834667466257 L 1.2246467991473533e-15 220 L -1.5691819145568975 219.93834667466257 L -3.1286893008046164 219.75376681190275 L -4.668907277118107 219.44739840795353 L -6.180339887498947 219.02113032590307 L -7.653668647301794 218.47759065022575 L -9.079809994790933 217.82013048376734 L -10.449971294318976 217.05280328708184 L -11.75570504584946 216.18033988749895 L -12.98896096660367 215.20811931200063 L -14.14213562373095 214.14213562373095 L -15.208119312000619 212.98896096660368 L -16.180339887498945 211.75570504584945 L -17.052803287081844 210.44997129431897 L -17.820130483767358 209.07980999479093 L -18.477590650225736 207.6536686473018 L -19.02113032590307 206.18033988749895 L -19.447398407953532 204.6689072771181 L -19.753766811902754 203.1286893008046 L -19.938346674662558 201.5691819145569 L -20 200 L -19.938346674662558 198.4308180854431 L -19.753766811902757 196.8713106991954 L -19.447398407953532 195.3310927228819 L -19.021130325903073 193.81966011250105 L -18.477590650225736 192.3463313526982 L -17.820130483767358 190.92019000520907 L -17.052803287081847 189.55002870568103 L -16.180339887498953 188.24429495415055 L -15.20811931200062 187.01103903339634 L -14.142135623730955 185.85786437626905 L -12.988960966603681 184.7918806879994 L -11.755705045849465 183.81966011250105 L -10.44997129431897 182.94719671291816 L -9.079809994790923 182.17986951623263 L -7.653668647301774 181.52240934977425 L -6.180339887498918 180.97886967409693 L -4.668907277118068 180.55260159204647 L -3.1286893008045684 180.24623318809725 L -1.5691819145568406 180.06165332533743 L 6.738033317856795e-14 180 L 1.569181914556975 180.06165332533743 L 3.128689300804701 180.24623318809725 L 4.668907277118199 180.5526015920465 L 6.180339887499046 180.97886967409696 L 7.653668647301899 181.5224093497743 L 9.079809994791043 182.1798695162327 L 10.449971294319088 182.9471967129182 L 11.755705045849574 183.81966011250114 L 12.988960966603784 184.79188068799948 L 14.142135623731061 185.85786437626916 L 15.208119312000726 187.01103903339646 L 16.180339887499052 188.2442949541507 L 17.05280328708194 189.55002870568117 L 17.820130483767443 190.92019000520924 L 18.477590650225814 192.3463313526984 L 19.021130325903137 193.81966011250125 L 19.44739840795358 195.3310927228821 L 19.753766811902793 196.87131069919562 L 19.938346674662576 198.43081808544335 Z" fill-opacity="1" stroke-opacity="1" stroke-miterlimit="10" stroke-width="4"/><text fill="rgb(255,255,255)" stroke="none" font-family="Helvetica,Arial,sans-serif" font-size="16px" font-style="normal" font-weight="normal" text-decoration="normal" x="0" y="208" text-anchor="middle" dominant-baseline="text-after-edge" fill-opacity="1">d</text><path fill="rgb(0,0,255)" stroke="rgb(0,0,0)" paint-order="fill stroke markers" d=" M 70 200 L 69.93834667466255 201.5691819145569 L 69.75376681190275 203.1286893008046 L 69.44739840795353 204.6689072771181 L 69.02113032590307 206.18033988749895 L 68.47759065022574 207.6536686473018 L 67.82013048376736 209.07980999479093 L 67.05280328708184 210.44997129431897 L 66.18033988749895 211.75570504584945 L 65.20811931200062 212.98896096660368 L 64.14213562373095 214.14213562373095 L 62.98896096660367 215.20811931200063 L 61.75570504584947 216.18033988749895 L 60.44997129431898 217.05280328708184 L 59.079809994790935 217.82013048376734 L 57.6536686473018 218.47759065022575 L 56.180339887498945 219.02113032590307 L 54.66890727711811 219.44739840795353 L 53.128689300804616 219.75376681190275 L 51.5691819145569 219.93834667466257 L 50 220 L 48.4308180854431 219.93834667466257 L 46.871310699195384 219.75376681190275 L 45.33109272288189 219.44739840795353 L 43.819660112501055 219.02113032590307 L 42.34633135269821 218.47759065022575 L 40.920190005209065 217.82013048376734 L 39.55002870568102 217.05280328708184 L 38.24429495415054 216.18033988749895 L 37.01103903339633 215.20811931200063 L 35.85786437626905 214.14213562373095 L 34.79188068799938 212.98896096660368 L 33.819660112501055 211.75570504584945 L 32.947196712918156 210.44997129431897 L 32.17986951623264 209.07980999479093 L 31.522409349774264 207.6536686473018 L 30.97886967409693 206.18033988749895 L 30.552601592046468 204.6689072771181 L 30.246233188097246 203.1286893008046 L 30.061653325337442 201.5691819145569 L 30 200 L 30.061653325337442 198.4308180854431 L 30.246233188097243 196.8713106991954 L 30.552601592046468 195.3310927228819 L 30.978869674096927 193.81966011250105 L 31.522409349774264 192.3463313526982 L 32.17986951623264 190.92019000520907 L 32.947196712918156 189.55002870568103 L 33.81966011250105 188.24429495415055 L 34.79188068799938 187.01103903339634 L 35.85786437626905 185.85786437626905 L 37.011039033396315 184.7918806879994 L 38.24429495415053 183.81966011250105 L 39.55002870568103 182.94719671291816 L 40.92019000520908 182.17986951623263 L 42.34633135269823 181.52240934977425 L 43.81966011250108 180.97886967409693 L 45.331092722881934 180.55260159204647 L 46.87131069919543 180.24623318809725 L 48.43081808544316 180.06165332533743 L 50.000000000000064 180 L 51.56918191455698 180.06165332533743 L 53.1286893008047 180.24623318809725 L 54.6689072771182 180.5526015920465 L 56.180339887499045 180.97886967409696 L 57.6536686473019 181.5224093497743 L 59.07980999479104 182.1798695162327 L 60.449971294319084 182.9471967129182 L 61.755705045849574 183.81966011250114 L 62.988960966603784 184.79188068799948 L 64.14213562373106 185.85786437626916 L 65.20811931200072 187.01103903339646 L 66.18033988749906 188.2442949541507 L 67.05280328708194 189.55002870568117 L 67.82013048376744 190.92019000520924 L 68.4775906502258 192.3463313526984 L 69.02113032590313 193.81966011250125 L 69.44739840795359 195.3310927228821 L 69.75376681190279 196.87131069919562 L 69.93834667466257 198.43081808544335 Z" fill-opacity="1" stroke-opacity="1" stroke-miterlimit="10" stroke-width="4"/><text fill="rgb(255,255,255)" stroke="none" font-family="Helvetica,Arial,sans-serif" font-size="16px" font-style="normal" font-weight="normal" text-decoration="normal" x="50" y="208" text-anchor="middle" dominant-baseline="text-after-edge" fill-opacity="1">e</text><path fill="rgb(0,0,255)" stroke="rgb(0,0,0)" paint-order="fill stroke markers" d=" M 120 200 L 119.93834667466255 201.5691819145569 L 119.75376681190275 203.1286893008046 L 119.44739840795353 204.6689072771181 L 119.02113032590307 206.18033988749895 L 118.47759065022574 207.6536686473018 L 117.82013048376736 209.07980999479093 L 117.05280328708184 210.44997129431897 L 116.18033988749895 211.75570504584945 L 115.20811931200062 212.98896096660368 L 114.14213562373095 214.14213562373095 L 112.98896096660367 215.20811931200063 L 111.75570504584947 216.18033988749895 L 110.44997129431897 217.05280328708184 L 109.07980999479093 217.82013048376734 L 107.6536686473018 218.47759065022575 L 106.18033988749895 219.02113032590307 L 104.66890727711811 219.44739840795353 L 103.12868930080462 219.75376681190275 L 101.5691819145569 219.93834667466257 L 100 220 L 98.43081808544311 219.93834667466257 L 96.87131069919539 219.75376681190275 L 95.33109272288189 219.44739840795353 L 93.81966011250105 219.02113032590307 L 92.3463313526982 218.47759065022575 L 90.92019000520907 217.82013048376734 L 89.55002870568103 217.05280328708184 L 88.24429495415055 216.18033988749895 L 87.01103903339633 215.20811931200063 L 85.85786437626905 214.14213562373095 L 84.79188068799938 212.98896096660368 L 83.81966011250105 211.75570504584945 L 82.94719671291816 210.44997129431897 L 82.17986951623264 209.07980999479093 L 81.52240934977426 207.6536686473018 L 80.97886967409693 206.18033988749895 L 80.55260159204647 204.6689072771181 L 80.24623318809725 203.1286893008046 L 80.06165332533745 201.5691819145569 L 80 200 L 80.06165332533745 198.4308180854431 L 80.24623318809725 196.8713106991954 L 80.55260159204647 195.3310927228819 L 80.97886967409693 193.81966011250105 L 81.52240934977426 192.3463313526982 L 82.17986951623264 190.92019000520907 L 82.94719671291816 189.55002870568103 L 83.81966011250105 188.24429495415055 L 84.79188068799938 187.01103903339634 L 85.85786437626905 185.85786437626905 L 87.01103903339632 184.7918806879994 L 88.24429495415053 183.81966011250105 L 89.55002870568103 182.94719671291816 L 90.92019000520908 182.17986951623263 L 92.34633135269823 181.52240934977425 L 93.81966011250108 180.97886967409693 L 95.33109272288193 180.55260159204647 L 96.87131069919543 180.24623318809725 L 98.43081808544316 180.06165332533743 L 100.00000000000007 180 L 101.56918191455698 180.06165332533743 L 103.1286893008047 180.24623318809725 L 104.6689072771182 180.5526015920465 L 106.18033988749904 180.97886967409696 L 107.6536686473019 181.5224093497743 L 109.07980999479105 182.1798695162327 L 110.44997129431908 182.9471967129182 L 111.75570504584957 183.81966011250114 L 112.98896096660378 184.79188068799948 L 114.14213562373106 185.85786437626916 L 115.20811931200072 187.01103903339646 L 116.18033988749906 188.2442949541507 L 117.05280328708194 189.55002870568117 L 117.82013048376744 190.92019000520924 L 118.4775906502258 192.3463313526984 L 119.02113032590313 193.81966011250125 L 119.44739840795359 195.3310927228821 L 119.75376681190279 196.87131069919562 L 119.93834667466257 198.43081808544335 Z" fill-opacity="1" stroke-opacity="1" stroke-miterlimit="10" stroke-width="4"/><text fill="rgb(255,255,255)" stroke="none" font-family="Helvetica,Arial,sans-serif" font-size="16px" font-style="normal" font-weight="normal" text-decoration="normal" x="100" y="208" text-anchor="middle" dominant-baseline="text-after-edge" fill-opacity="1">f</text><path fill="rgb(0,0,255)" stroke="rgb(0,0,0)" paint-order="fill stroke markers" d=" M 20 100 L 19.938346674662558 101.56918191455689 L 19.753766811902757 103.12868930080462 L 19.447398407953532 104.66890727711811 L 19.02113032590307 106.18033988749895 L 18.477590650225736 107.6536686473018 L 17.820130483767358 109.07980999479093 L 17.052803287081844 110.44997129431897 L 16.18033988749895 111.75570504584947 L 15.208119312000619 112.98896096660367 L 14.142135623730951 114.14213562373095 L 12.988960966603674 115.20811931200062 L 11.755705045849464 116.18033988749895 L 10.449971294318978 117.05280328708184 L 9.079809994790937 117.82013048376736 L 7.653668647301797 118.47759065022574 L 6.180339887498949 119.02113032590307 L 4.66890727711811 119.44739840795353 L 3.1286893008046186 119.75376681190275 L 1.5691819145569 119.93834667466255 L 1.2246467991473533e-15 120 L -1.5691819145568975 119.93834667466255 L -3.1286893008046164 119.75376681190275 L -4.668907277118107 119.44739840795353 L -6.180339887498947 119.02113032590307 L -7.653668647301794 118.47759065022574 L -9.079809994790933 117.82013048376736 L -10.449971294318976 117.05280328708184 L -11.75570504584946 116.18033988749895 L -12.98896096660367 115.20811931200062 L -14.14213562373095 114.14213562373095 L -15.208119312000619 112.98896096660367 L -16.180339887498945 111.75570504584947 L -17.052803287081844 110.44997129431897 L -17.820130483767358 109.07980999479093 L -18.477590650225736 107.6536686473018 L -19.02113032590307 106.18033988749895 L -19.447398407953532 104.66890727711811 L -19.753766811902754 103.12868930080462 L -19.938346674662558 101.5691819145569 L -20 100 L -19.938346674662558 98.43081808544311 L -19.753766811902757 96.87131069919539 L -19.447398407953532 95.33109272288189 L -19.021130325903073 93.81966011250105 L -18.477590650225736 92.3463313526982 L -17.820130483767358 90.92019000520907 L -17.052803287081847 89.55002870568103 L -16.180339887498953 88.24429495415055 L -15.20811931200062 87.01103903339633 L -14.142135623730955 85.85786437626905 L -12.988960966603681 84.7918806879994 L -11.755705045849465 83.81966011250105 L -10.44997129431897 82.94719671291816 L -9.079809994790923 82.17986951623263 L -7.653668647301774 81.52240934977425 L -6.180339887498918 80.97886967409693 L -4.668907277118068 80.55260159204646 L -3.1286893008045684 80.24623318809724 L -1.5691819145568406 80.06165332533743 L 6.738033317856795e-14 80 L 1.569181914556975 80.06165332533745 L 3.128689300804701 80.24623318809725 L 4.668907277118199 80.55260159204649 L 6.180339887499046 80.97886967409696 L 7.653668647301899 81.5224093497743 L 9.079809994791043 82.1798695162327 L 10.449971294319088 82.94719671291823 L 11.755705045849574 83.81966011250114 L 12.988960966603784 84.79188068799948 L 14.142135623731061 85.85786437626916 L 15.208119312000726 87.01103903339646 L 16.180339887499052 88.24429495415067 L 17.05280328708194 89.55002870568117 L 17.820130483767443 90.92019000520924 L 18.477590650225814 92.34633135269839 L 19.021130325903137 93.81966011250125 L 19.44739840795358 95.3310927228821 L 19.753766811902793 96.8713106991956 L 19.938346674662576 98.43081808544333 Z" fill-opacity="1" stroke-opacity="1" stroke-miterlimit="10" stroke-width="4"/><text fill="rgb(255,255,255)" stroke="none" font-family="Helvetica,Arial,sans-serif" font-size="16px" font-style="normal" font-weight="normal" text-decoration="normal" x="0" y="108" text-anchor="middle" dominant-baseline="text-after-edge" fill-opacity="1">g</text><path fill="rgb(0,0,255)" stroke="rgb(0,0,0)" paint-order="fill stroke markers" d=" M 70 100 L 69.93834667466255 101.56918191455689 L 69.75376681190275 103.12868930080462 L 69.44739840795353 104.66890727711811 L 69.02113032590307 106.18033988749895 L 68.47759065022574 107.6536686473018 L 67.82013048376736 109.07980999479093 L 67.05280328708184 110.44997129431897 L 66.18033988749895 111.75570504584947 L 65.20811931200062 112.98896096660367 L 64.14213562373095 114.14213562373095 L 62.98896096660367 115.20811931200062 L 61.75570504584947 116.18033988749895 L 60.44997129431898 117.05280328708184 L 59.079809994790935 117.82013048376736 L 57.6536686473018 118.47759065022574 L 56.180339887498945 119.02113032590307 L 54.66890727711811 119.44739840795353 L 53.128689300804616 119.75376681190275 L 51.5691819145569 119.93834667466255 L 50 120 L 48.4308180854431 119.93834667466255 L 46.871310699195384 119.75376681190275 L 45.33109272288189 119.44739840795353 L 43.819660112501055 119.02113032590307 L 42.34633135269821 118.47759065022574 L 40.920190005209065 117.82013048376736 L 39.55002870568102 117.05280328708184 L 38.24429495415054 116.18033988749895 L 37.01103903339633 115.20811931200062 L 35.85786437626905 114.14213562373095 L 34.79188068799938 112.98896096660367 L 33.819660112501055 111.75570504584947 L 32.947196712918156 110.44997129431897 L 32.17986951623264 109.07980999479093 L 31.522409349774264 107.6536686473018 L 30.97886967409693 106.18033988749895 L 30.552601592046468 104.66890727711811 L 30.246233188097246 103.12868930080462 L 30.061653325337442 101.5691819145569 L 30 100 L 30.061653325337442 98.43081808544311 L 30.246233188097243 96.87131069919539 L 30.552601592046468 95.33109272288189 L 30.978869674096927 93.81966011250105 L 31.522409349774264 92.3463313526982 L 32.17986951623264 90.92019000520907 L 32.947196712918156 89.55002870568103 L 33.81966011250105 88.24429495415055 L 34.79188068799938 87.01103903339633 L 35.85786437626905 85.85786437626905 L 37.011039033396315 84.7918806879994 L 38.24429495415053 83.81966011250105 L 39.55002870568103 82.94719671291816 L 40.92019000520908 82.17986951623263 L 42.34633135269823 81.52240934977425 L 43.81966011250108 80.97886967409693 L 45.331092722881934 80.55260159204646 L 46.87131069919543 80.24623318809724 L 48.43081808544316 80.06165332533743 L 50.000000000000064 80 L 51.56918191455698 80.06165332533745 L 53.1286893008047 80.24623318809725 L 54.6689072771182 80.55260159204649 L 56.180339887499045 80.97886967409696 L 57.6536686473019 81.5224093497743 L 59.07980999479104 82.1798695162327 L 60.449971294319084 82.94719671291823 L 61.755705045849574 83.81966011250114 L 62.988960966603784 84.79188068799948 L 64.14213562373106 85.85786437626916 L 65.20811931200072 87.01103903339646 L 66.18033988749906 88.24429495415067 L 67.05280328708194 89.55002870568117 L 67.82013048376744 90.92019000520924 L 68.4775906502258 92.34633135269839 L 69.02113032590313 93.81966011250125 L 69.44739840795359 95.3310927228821 L 69.75376681190279 96.8713106991956 L 69.93834667466257 98.43081808544333 Z" fill-opacity="1" stroke-opacity="1" stroke-miterlimit="10" stroke-width="4"/><text fill="rgb(255,255,255)" stroke="none" font-family="Helvetica,Arial,sans-serif" font-size="16px" font-style="normal" font-weight="normal" text-decoration="normal" x="50" y="108" text-anchor="middle" dominant-baseline="text-after-edge" fill-opacity="1">h</text><path fill="rgb(255,0,0)" stroke="rgb(0,0,0)" paint-order="fill stroke markers" d=" M 120 0 L 119.93834667466255 1.5691819145568988 L 119.75376681190275 3.1286893008046173 L 119.44739840795353 4.668907277118108 L 119.02113032590307 6.180339887498948 L 118.47759065022574 7.653668647301796 L 117.82013048376736 9.079809994790935 L 117.05280328708184 10.449971294318976 L 116.18033988749895 11.755705045849464 L 115.20811931200062 12.988960966603674 L 114.14213562373095 14.14213562373095 L 112.98896096660367 15.208119312000619 L 111.75570504584947 16.18033988749895 L 110.44997129431897 17.052803287081844 L 109.07980999479093 17.820130483767358 L 107.6536686473018 18.477590650225736 L 106.18033988749895 19.02113032590307 L 104.66890727711811 19.447398407953532 L 103.12868930080462 19.753766811902757 L 101.5691819145569 19.938346674662558 L 100 20 L 98.43081808544311 19.938346674662558 L 96.87131069919539 19.753766811902757 L 95.33109272288189 19.447398407953532 L 93.81966011250105 19.021130325903073 L 92.3463313526982 18.477590650225736 L 90.92019000520907 17.820130483767358 L 89.55002870568103 17.052803287081847 L 88.24429495415055 16.18033988749895 L 87.01103903339633 15.20811931200062 L 85.85786437626905 14.142135623730951 L 84.79188068799938 12.988960966603676 L 83.81966011250105 11.755705045849465 L 82.94719671291816 10.449971294318978 L 82.17986951623264 9.079809994790937 L 81.52240934977426 7.653668647301798 L 80.97886967409693 6.18033988749895 L 80.55260159204647 4.668907277118111 L 80.24623318809725 3.1286893008046195 L 80.06165332533745 1.5691819145569013 L 80 2.4492935982947065e-15 L 80.06165332533745 -1.5691819145568964 L 80.24623318809725 -3.1286893008046146 L 80.55260159204647 -4.668907277118105 L 80.97886967409693 -6.1803398874989455 L 81.52240934977426 -7.653668647301793 L 82.17986951623264 -9.079809994790933 L 82.94719671291816 -10.449971294318974 L 83.81966011250105 -11.75570504584946 L 84.79188068799938 -12.98896096660367 L 85.85786437626905 -14.14213562373095 L 87.01103903339632 -15.208119312000612 L 88.24429495415053 -16.180339887498945 L 89.55002870568103 -17.052803287081847 L 90.92019000520908 -17.820130483767365 L 92.34633135269823 -18.477590650225743 L 93.81966011250108 -19.02113032590308 L 95.33109272288193 -19.447398407953543 L 96.87131069919543 -19.75376681190276 L 98.43081808544316 -19.938346674662565 L 100.00000000000007 -20 L 101.56918191455698 -19.938346674662554 L 103.1286893008047 -19.753766811902743 L 104.6689072771182 -19.44739840795351 L 106.18033988749904 -19.02113032590304 L 107.6536686473019 -18.477590650225693 L 109.07980999479105 -17.8201304837673 L 110.44997129431908 -17.052803287081776 L 111.75570504584957 -16.180339887498867 L 112.98896096660378 -15.208119312000523 L 114.14213562373106 -14.14213562373084 L 115.20811931200072 -12.98896096660355 L 116.18033988749906 -11.755705045849323 L 117.05280328708194 -10.449971294318823 L 117.82013048376744 -9.079809994790766 L 118.4775906502258 -7.653668647301611 L 119.02113032590313 -6.18033988749875 L 119.44739840795359 -4.6689072771178965 L 119.75376681190279 -3.1286893008043943 L 119.93834667466257 -1.5691819145566646 Z" fill-opacity="1" stroke-opacity="1" stroke-miterlimit="10" stroke-width="4"/><text fill="rgb(0,0,0)" stroke="none" font-family="Helvetica,Arial,sans-serif" font-size="16px" font-style="normal" font-weight="normal" text-decoration="normal" x="100" y="8" text-anchor="middle" dominant-baseline="text-after-edge" fill-opacity="1">i</text><path fill="rgb(255,0,0)" stroke="rgb(0,0,0)" paint-order="fill stroke markers" d=" M 70 0 L 69.93834667466255 1.5691819145568988 L 69.75376681190275 3.1286893008046173 L 69.44739840795353 4.668907277118108 L 69.02113032590307 6.180339887498948 L 68.47759065022574 7.653668647301796 L 67.82013048376736 9.079809994790935 L 67.05280328708184 10.449971294318976 L 66.18033988749895 11.755705045849464 L 65.20811931200062 12.988960966603674 L 64.14213562373095 14.14213562373095 L 62.98896096660367 15.208119312000619 L 61.75570504584947 16.18033988749895 L 60.44997129431898 17.052803287081844 L 59.079809994790935 17.820130483767358 L 57.6536686473018 18.477590650225736 L 56.180339887498945 19.02113032590307 L 54.66890727711811 19.447398407953532 L 53.128689300804616 19.753766811902757 L 51.5691819145569 19.938346674662558 L 50 20 L 48.4308180854431 19.938346674662558 L 46.871310699195384 19.753766811902757 L 45.33109272288189 19.447398407953532 L 43.819660112501055 19.021130325903073 L 42.34633135269821 18.477590650225736 L 40.920190005209065 17.820130483767358 L 39.55002870568102 17.052803287081847 L 38.24429495415054 16.18033988749895 L 37.01103903339633 15.20811931200062 L 35.85786437626905 14.142135623730951 L 34.79188068799938 12.988960966603676 L 33.819660112501055 11.755705045849465 L 32.947196712918156 10.449971294318978 L 32.17986951623264 9.079809994790937 L 31.522409349774264 7.653668647301798 L 30.97886967409693 6.18033988749895 L 30.552601592046468 4.668907277118111 L 30.246233188097246 3.1286893008046195 L 30.061653325337442 1.5691819145569013 L 30 2.4492935982947065e-15 L 30.061653325337442 -1.5691819145568964 L 30.246233188097243 -3.1286893008046146 L 30.552601592046468 -4.668907277118105 L 30.978869674096927 -6.1803398874989455 L 31.522409349774264 -7.653668647301793 L 32.17986951623264 -9.079809994790933 L 32.947196712918156 -10.449971294318974 L 33.81966011250105 -11.75570504584946 L 34.79188068799938 -12.98896096660367 L 35.85786437626905 -14.14213562373095 L 37.011039033396315 -15.208119312000612 L 38.24429495415053 -16.180339887498945 L 39.55002870568103 -17.052803287081847 L 40.92019000520908 -17.820130483767365 L 42.34633135269823 -18.477590650225743 L 43.81966011250108 -19.02113032590308 L 45.331092722881934 -19.447398407953543 L 46.87131069919543 -19.75376681190276 L 48.43081808544316 -19.938346674662565 L 50.000000000000064 -20 L 51.56918191455698 -19.938346674662554 L 53.1286893008047 -19.753766811902743 L 54.6689072771182 -19.44739840795351 L 56.180339887499045 -19.02113032590304 L 57.6536686473019 -18.477590650225693 L 59.07980999479104 -17.8201304837673 L 60.449971294319084 -17.052803287081776 L 61.755705045849574 -16.180339887498867 L 62.988960966603784 -15.208119312000523 L 64.14213562373106 -14.14213562373084 L 65.20811931200072 -12.98896096660355 L 66.18033988749906 -11.755705045849323 L 67.05280328708194 -10.449971294318823 L 67.82013048376744 -9.079809994790766 L 68.4775906502258 -7.653668647301611 L 69.02113032590313 -6.18033988749875 L 69.44739840795359 -4.6689072771178965 L 69.75376681190279 -3.1286893008043943 L 69.93834667466257 -1.5691819145566646 Z" fill-opacity="1" stroke-opacity="1" stroke-miterlimit="10" stroke-width="4"/><text fill="rgb(0,0,0)" stroke="none" font-family="Helvetica,Arial,sans-serif" font-size="16px" font-style="normal" font-weight="normal" text-decoration="normal" x="50" y="8" text-anchor="middle" dominant-baseline="text-after-edge" fill-opacity="1">j</text><path fill="rgb(255,0,0)" stroke="rgb(0,0,0)" paint-order="fill stroke markers" d=" M 20 0 L 19.938346674662558 1.5691819145568988 L 19.753766811902757 3.1286893008046173 L 19.447398407953532 4.668907277118108 L 19.02113032590307 6.180339887498948 L 18.477590650225736 7.653668647301796 L 17.820130483767358 9.079809994790935 L 17.052803287081844 10.449971294318976 L 16.18033988749895 11.755705045849464 L 15.208119312000619 12.988960966603674 L 14.142135623730951 14.14213562373095 L 12.988960966603674 15.208119312000619 L 11.755705045849464 16.18033988749895 L 10.449971294318978 17.052803287081844 L 9.079809994790937 17.820130483767358 L 7.653668647301797 18.477590650225736 L 6.180339887498949 19.02113032590307 L 4.66890727711811 19.447398407953532 L 3.1286893008046186 19.753766811902757 L 1.5691819145569 19.938346674662558 L 1.2246467991473533e-15 20 L -1.5691819145568975 19.938346674662558 L -3.1286893008046164 19.753766811902757 L -4.668907277118107 19.447398407953532 L -6.180339887498947 19.021130325903073 L -7.653668647301794 18.477590650225736 L -9.079809994790933 17.820130483767358 L -10.449971294318976 17.052803287081847 L -11.75570504584946 16.18033988749895 L -12.98896096660367 15.20811931200062 L -14.14213562373095 14.142135623730951 L -15.208119312000619 12.988960966603676 L -16.180339887498945 11.755705045849465 L -17.052803287081844 10.449971294318978 L -17.820130483767358 9.079809994790937 L -18.477590650225736 7.653668647301798 L -19.02113032590307 6.18033988749895 L -19.447398407953532 4.668907277118111 L -19.753766811902754 3.1286893008046195 L -19.938346674662558 1.5691819145569013 L -20 2.4492935982947065e-15 L -19.938346674662558 -1.5691819145568964 L -19.753766811902757 -3.1286893008046146 L -19.447398407953532 -4.668907277118105 L -19.021130325903073 -6.1803398874989455 L -18.477590650225736 -7.653668647301793 L -17.820130483767358 -9.079809994790933 L -17.052803287081847 -10.449971294318974 L -16.180339887498953 -11.75570504584946 L -15.20811931200062 -12.98896096660367 L -14.142135623730955 -14.14213562373095 L -12.988960966603681 -15.208119312000612 L -11.755705045849465 -16.180339887498945 L -10.44997129431897 -17.052803287081847 L -9.079809994790923 -17.820130483767365 L -7.653668647301774 -18.477590650225743 L -6.180339887498918 -19.02113032590308 L -4.668907277118068 -19.447398407953543 L -3.1286893008045684 -19.75376681190276 L -1.5691819145568406 -19.938346674662565 L 6.738033317856795e-14 -20 L 1.569181914556975 -19.938346674662554 L 3.128689300804701 -19.753766811902743 L 4.668907277118199 -19.44739840795351 L 6.180339887499046 -19.02113032590304 L 7.653668647301899 -18.477590650225693 L 9.079809994791043 -17.8201304837673 L 10.449971294319088 -17.052803287081776 L 11.755705045849574 -16.180339887498867 L 12.988960966603784 -15.208119312000523 L 14.142135623731061 -14.14213562373084 L 15.208119312000726 -12.98896096660355 L 16.180339887499052 -11.755705045849323 L 17.05280328708194 -10.449971294318823 L 17.820130483767443 -9.079809994790766 L 18.477590650225814 -7.653668647301611 L 19.021130325903137 -6.18033988749875 L 19.44739840795358 -4.6689072771178965 L 19.753766811902793 -3.1286893008043943 L 19.938346674662576 -1.5691819145566646 Z" fill-opacity="1" stroke-opacity="1" stroke-miterlimit="10" stroke-width="4"/><text fill="rgb(0,0,0)" stroke="none" font-family="Helvetica,Arial,sans-serif" font-size="16px" font-style="normal" font-weight="normal" text-decoration="normal" x="0" y="8" text-anchor="middle" dominant-baseline="text-after-edge" fill-opacity="1">k</text><path fill="rgb(255,0,0)" stroke="rgb(0,0,0)" paint-order="fill stroke markers" d=" M 120 300 L 119.93834667466255 301.5691819145569 L 119.75376681190275 303.12868930080464 L 119.44739840795353 304.6689072771181 L 119.02113032590307 306.180339887499 L 118.47759065022574 307.6536686473018 L 117.82013048376736 309.07980999479093 L 117.05280328708184 310.44997129431897 L 116.18033988749895 311.7557050458495 L 115.20811931200062 312.98896096660366 L 114.14213562373095 314.14213562373095 L 112.98896096660367 315.20811931200063 L 111.75570504584947 316.180339887499 L 110.44997129431897 317.0528032870818 L 109.07980999479093 317.82013048376734 L 107.6536686473018 318.47759065022575 L 106.18033988749895 319.0211303259031 L 104.66890727711811 319.44739840795353 L 103.12868930080462 319.7537668119028 L 101.5691819145569 319.93834667466257 L 100 320 L 98.43081808544311 319.93834667466257 L 96.87131069919539 319.7537668119028 L 95.33109272288189 319.44739840795353 L 93.81966011250105 319.0211303259031 L 92.3463313526982 318.47759065022575 L 90.92019000520907 317.82013048376734 L 89.55002870568103 317.0528032870819 L 88.24429495415055 316.180339887499 L 87.01103903339633 315.20811931200063 L 85.85786437626905 314.14213562373095 L 84.79188068799938 312.98896096660366 L 83.81966011250105 311.7557050458495 L 82.94719671291816 310.44997129431897 L 82.17986951623264 309.07980999479093 L 81.52240934977426 307.6536686473018 L 80.97886967409693 306.180339887499 L 80.55260159204647 304.66890727711814 L 80.24623318809725 303.12868930080464 L 80.06165332533745 301.5691819145569 L 80 300 L 80.06165332533745 298.4308180854431 L 80.24623318809725 296.87131069919536 L 80.55260159204647 295.3310927228819 L 80.97886967409693 293.8196601125011 L 81.52240934977426 292.3463313526982 L 82.17986951623264 290.92019000520907 L 82.94719671291816 289.55002870568103 L 83.81966011250105 288.2442949541505 L 84.79188068799938 287.01103903339634 L 85.85786437626905 285.85786437626905 L 87.01103903339632 284.79188068799937 L 88.24429495415053 283.8196601125011 L 89.55002870568103 282.9471967129181 L 90.92019000520908 282.17986951623266 L 92.34633135269823 281.52240934977425 L 93.81966011250108 280.9788696740969 L 95.33109272288193 280.55260159204647 L 96.87131069919543 280.2462331880972 L 98.43081808544316 280.06165332533743 L 100.00000000000007 280 L 101.56918191455698 280.06165332533743 L 103.1286893008047 280.2462331880973 L 104.6689072771182 280.55260159204647 L 106.18033988749904 280.978869674097 L 107.6536686473019 281.5224093497743 L 109.07980999479105 282.1798695162327 L 110.44997129431908 282.94719671291824 L 111.75570504584957 283.81966011250114 L 112.98896096660378 284.7918806879995 L 114.14213562373106 285.85786437626916 L 115.20811931200072 287.01103903339646 L 116.18033988749906 288.2442949541507 L 117.05280328708194 289.5500287056812 L 117.82013048376744 290.92019000520924 L 118.4775906502258 292.34633135269837 L 119.02113032590313 293.81966011250125 L 119.44739840795359 295.3310927228821 L 119.75376681190279 296.8713106991956 L 119.93834667466257 298.4308180854433 Z" fill-opacity="1" stroke-opacity="1" stroke-miterlimit="10" stroke-width="4"/><text fill="rgb(0,0,0)" stroke="none" font-family="Helvetica,Arial,sans-serif" font-size="16px" font-style="normal" font-weight="normal" text-decoration="normal" x="100" y="308" text-anchor="middle" dominant-baseline="text-after-edge" fill-opacity="1">l</text><g transform="scale(0.6407407407407407,0.6407407407407407) translate(-245.96531791907515,-65.89595375722544)"/></g></svg>
