<?xml version="1.0" encoding="UTF-8" standalone="no"?>
<svg
   width="82.015633pt"
   height="113.51562pt"
   viewBox="0 0 82.015633 113.51562"
   version="1.1"
   id="svg25"
   xmlns="http://www.w3.org/2000/svg"
   xmlns:svg="http://www.w3.org/2000/svg">
  <defs
     id="defs11">
    <clipPath
       id="clip-0">
      <path
         clip-rule="nonzero"
         d="M 0,0 H 82.015625 V 53 H 0 Z m 0,0"
         id="path2" />
    </clipPath>
    <clipPath
       id="clip-1">
      <path
         clip-rule="nonzero"
         d="m 0,57 h 82.015625 v 56.51563 H 0 Z m 0,0"
         id="path5" />
    </clipPath>
    <clipPath
       id="clip-2">
      <path
         clip-rule="nonzero"
         d="M 0,35 H 82.015625 V 65 H 0 Z m 0,0"
         id="path8" />
    </clipPath>
  </defs>
  <g
     clip-path="url(#clip-0)"
     id="g15">
    <path
       fill-rule="nonzero"
       fill="#2d3979"
       fill-opacity="1"
       d="M 82.011719,0 C 47.054688,0 17.945312,10.101562 1.597656,23.792969 0.664062,24.589844 0,25.652344 0,27.117188 V 52.371094 C 0,51.839844 0.398438,51.441406 1.199219,50.777344 23.660156,32.699219 52.902344,27.25 82.011719,27.25 Z m 0,0"
       id="path13" />
  </g>
  <g
     clip-path="url(#clip-1)"
     id="g19">
    <path
       fill-rule="nonzero"
       fill="#2d3979"
       fill-opacity="1"
       d="M 82.015625,82.625 V 57.289062 c 0,0.664063 -1.199219,0.929688 -3.058594,1.0625 C 48.78125,60.214844 19.9375,69.519531 0,83.742188 V 113.51563 C 18.542969,100.71484 45.480469,89.75 71.03125,86.132812 c 0.3125,-0.04297 6.554688,-0.953124 7.335938,-1.070312 0.949218,-0.144531 2.917968,-0.355469 3.488281,-1.601562 0.121093,-0.257813 0.160156,-0.601563 0.160156,-0.835938"
       id="path17" />
  </g>
  <g
     clip-path="url(#clip-2)"
     id="g23">
    <path
       fill-rule="nonzero"
       fill="#758bbc"
       fill-opacity="1"
       d="m 82.011719,57.289062 c 0,-0.664062 -0.664063,-1.328124 -1.726563,-2.125 C 66.394531,45.476562 48.984375,38.617188 28.917969,35.40625 18.96875,39.007812 9.609375,44.007812 1.199219,50.777344 0.398438,51.441406 0,51.839844 0,52.371094 c 0,0.53125 0.265625,0.664062 1.328125,0.796875 13.097656,1.394531 28.3125,4.871093 42.308594,10.894531 11.230469,-3 23.164062,-4.960938 35.320312,-5.710938 1.859375,-0.132812 3.054688,-0.398437 3.054688,-1.0625"
       id="path21" />
  </g>
</svg>
