<?xml version="1.0" encoding="UTF-8" standalone="no"?>
<svg
   xmlns:dc="http://purl.org/dc/elements/1.1/"
   xmlns:cc="http://creativecommons.org/ns#"
   xmlns:rdf="http://www.w3.org/1999/02/22-rdf-syntax-ns#"
   xmlns:svg="http://www.w3.org/2000/svg"
   xmlns="http://www.w3.org/2000/svg"
   xmlns:sodipodi="http://sodipodi.sourceforge.net/DTD/sodipodi-0.dtd"
   xmlns:inkscape="http://www.inkscape.org/namespaces/inkscape"
   viewBox="0 0 155.28 43.14"
   role="img"
   aria-labelledby="icon-official-logo-black"
   version="1.1"
   id="svg75"
   sodipodi:docname="logo-black.svg"
   inkscape:version="0.92.5 (2060ec1f9f, 2020-04-08)">
  <metadata
     id="metadata79">
    <rdf:RDF>
      <cc:Work
         rdf:about="">
        <dc:format>image/svg+xml</dc:format>
        <dc:type
           rdf:resource="http://purl.org/dc/dcmitype/StillImage" />
        <dc:title>東京工業大学　Tokyo Institute of Technology</dc:title>
      </cc:Work>
    </rdf:RDF>
  </metadata>
  <sodipodi:namedview
     pagecolor="#ffffff"
     bordercolor="#666666"
     borderopacity="1"
     objecttolerance="10"
     gridtolerance="10"
     guidetolerance="10"
     inkscape:pageopacity="0"
     inkscape:pageshadow="2"
     inkscape:window-width="1920"
     inkscape:window-height="1017"
     id="namedview77"
     showgrid="false"
     inkscape:zoom="7.6503053"
     inkscape:cx="76.310382"
     inkscape:cy="12.886879"
     inkscape:window-x="0"
     inkscape:window-y="27"
     inkscape:window-maximized="1"
     inkscape:current-layer="svg75" />
  <title
     id="icon-official-logo-black">東京工業大学　Tokyo Institute of Technology</title>
  <defs
     id="defs5">
    <style
       id="style3">.cls-1{fill:#231815;}.cls-2{fill:none;}</style>
  </defs>
  <path
     class="cls-1"
     d="M55.83,19.66h-4.9a17.86,17.86,0,0,0,6.78,4.23,5.67,5.67,0,0,0-.85,1.05,19.48,19.48,0,0,1-7-4.86v5.13H48.61V20.15a19.78,19.78,0,0,1-6.86,4.76,4.85,4.85,0,0,0-.85-1,18.3,18.3,0,0,0,6.66-4.23H43V13h5.66V11.33H41.34V10.18h7.27V8.42l1.61.09c0,.13-.11.22-.36.26v1.41h7.47v1.15H49.86V13h6ZM44.14,15.84h4.47V14H44.14Zm0,2.84h4.47v-1.9H44.14ZM54.6,14H49.86v1.86H54.6Zm0,2.8H49.86v1.9H54.6Z"
     id="path7"
     style="stroke:#000000;stroke-opacity:1;stroke-width:0.2;stroke-miterlimit:4;stroke-dasharray:none;fill-rule:nonzero" />
  <path
     class="cls-1"
     d="M64,20.49a.37.37,0,0,1-.4.16,16.32,16.32,0,0,1-3.53,3.88,4.9,4.9,0,0,0-1-.73A12,12,0,0,0,62.51,20Zm11.43-9.9v1.18H59.36V10.59H66.7V8.38l1.63.1c0,.14-.11.23-.36.25v1.86Zm-2.2,8.29H68v4.87c0,1.45-.63,1.46-4,1.46a5.18,5.18,0,0,0-.44-1.16c.78,0,1.49,0,2,0,1.1,0,1.19,0,1.19-.36V18.88h-5V13.52H73.24ZM62.9,17.79H72V14.61H62.9Zm11.4,6.83a31.41,31.41,0,0,0-3.43-4.06L72,20A32.68,32.68,0,0,1,75.48,24Z"
     id="path9"
     style="stroke:#000000;stroke-opacity:1;stroke-width:0.2;stroke-miterlimit:4;stroke-dasharray:none;fill-rule:nonzero" />
  <polygon
     class="cls-1"
     points="86.08 22.55 93.63 22.55 93.63 23.78 77.32 23.78 77.32 22.55 84.8 22.55 84.8 11.71 78.21 11.71 78.21 10.5 92.79 10.5 92.79 11.71 86.08 11.71 86.08 22.55"
     id="polygon11"
     style="stroke:#000000;stroke-opacity:1;stroke-width:0.2;stroke-miterlimit:4;stroke-dasharray:none;fill-rule:nonzero" />
  <path
     class="cls-1"
     d="M111.59,20.8h-6.28A17,17,0,0,0,112,23.87a5.63,5.63,0,0,0-.82,1.07,17.55,17.55,0,0,1-7.07-3.87v4.14h-1.21V21.16a18.51,18.51,0,0,1-7,3.73,4.56,4.56,0,0,0-.79-1,17.71,17.71,0,0,0,6.64-3.06H95.58V19.75h7.35V18.28H97.32v-1h5.61V15.86H96.39v-1h4.13a8.72,8.72,0,0,0-.94-1.92l.7-.15H95.65V11.71h3A13.42,13.42,0,0,0,97.17,9l1-.36a11.58,11.58,0,0,1,1.61,2.75l-1,.36h2.37V8.39l1.54.09c0,.18-.16.27-.4.3v2.93h2.36V8.39l1.57.09c0,.18-.18.27-.41.3v2.93h2.27l-.67-.25A17,17,0,0,0,109,8.64l1.43.49c0,.11-.18.16-.38.16a25.24,25.24,0,0,1-1.47,2.42h3v1.07h-4.09L108,13a.35.35,0,0,1-.38.16c-.26.49-.66,1.19-1,1.74h4.29v1h-6.71v1.45H110v1h-5.82v1.47h7.45Zm-6.2-6.06a17.1,17.1,0,0,0,1-2h-5.63a8.55,8.55,0,0,1,1,1.94l-.56.13h4.47Z"
     id="path13"
     style="stroke:#000000;stroke-opacity:1;stroke-width:0.2;stroke-miterlimit:4;stroke-dasharray:none;fill-rule:nonzero" />
  <path
     class="cls-1"
     d="M129.74,15h-7.08c1.18,4.33,3.51,7.66,7.37,9.08a5.25,5.25,0,0,0-.91,1.14c-3.78-1.55-6.08-4.75-7.41-9.11a12.41,12.41,0,0,1-7.48,9.13,4.63,4.63,0,0,0-.87-1c4.78-1.93,6.57-5.55,7.26-9.21h-7V13.72h7.18a45.32,45.32,0,0,0,.23-5.3l1.71.09c0,.16-.17.26-.4.31a44.08,44.08,0,0,1-.26,4.9h7.64Z"
     id="path15"
     style="stroke:#000000;stroke-opacity:1;stroke-width:0.2;stroke-miterlimit:4;stroke-dasharray:none;fill-rule:nonzero" />
  <path
     class="cls-1"
     d="M147.87,19.08v1.14h-7.51v3.51c0,1.52-.87,1.54-4.22,1.54a5.66,5.66,0,0,0-.52-1.2c.92,0,1.74.06,2.31.06,1,0,1.18,0,1.18-.4V20.22h-7.42V19.08h7.42V17.5l.85.06a15.1,15.1,0,0,0,2.63-1.72h-7.88V14.75h9.16l.22-.07.94.6a.42.42,0,0,1-.27.16,19.48,19.48,0,0,1-4.4,3v.65Zm-14.57-6.5V15.5h-1.16v-4H135a13.8,13.8,0,0,0-1.61-2.37l1-.49a12.05,12.05,0,0,1,1.83,2.59l-.53.27h3.84a13.06,13.06,0,0,0-1.43-2.77l1-.4a11.93,11.93,0,0,1,1.54,2.9l-.64.27h3.17a21.6,21.6,0,0,0,2.08-3,7.23,7.23,0,0,1,1.43.6c-.05.11-.2.16-.38.14a25,25,0,0,1-1.74,2.23h2.95v4h-1.19V12.58Z"
     id="path17"
     style="stroke:#000000;stroke-opacity:1;stroke-width:0.2;stroke-miterlimit:4;stroke-dasharray:none;fill-rule:nonzero" />
  <polygon
     class="cls-1"
     points="45.59 29.42 43.76 29.42 43.76 35.04 43.08 35.04 43.08 29.42 41.26 29.42 41.26 28.85 45.59 28.85 45.59 29.42"
     id="polygon19"
     style="stroke:#000000;stroke-opacity:1;stroke-width:0.2;stroke-miterlimit:4;stroke-dasharray:none;fill-rule:nonzero" />
  <path
     class="cls-1"
     d="M49.51,32.79a2.11,2.11,0,0,1-2.07,2.35,2.05,2.05,0,0,1-2-2.29A2.11,2.11,0,0,1,47.5,30.5a2,2,0,0,1,2,2.29m-2-1.76c-1,0-1.36.95-1.36,1.8s.55,1.78,1.35,1.78,1.36-.8,1.36-1.8c0-.79-.38-1.78-1.35-1.78"
     id="path21"
     style="stroke:#000000;stroke-opacity:1;stroke-width:0.2;stroke-miterlimit:4;stroke-dasharray:none;fill-rule:nonzero" />
  <path
     class="cls-1"
     d="M54,35h-.83l-1.53-2.19-.41.47V35h-.67V28.53h.67v4.15h0a6,6,0,0,1,.38-.5l1.33-1.57h.81l-1.67,1.83Z"
     id="path23"
     style="stroke:#000000;stroke-opacity:1;stroke-width:0.2;stroke-miterlimit:4;stroke-dasharray:none;fill-rule:nonzero" />
  <path
     class="cls-1"
     d="M58.08,30.61,56.9,33.75a7.13,7.13,0,0,1-1.45,2.79,2.29,2.29,0,0,1-.9.52l-.19-.57a2.53,2.53,0,0,0,1.43-1.59.67.67,0,0,0,0-.19l-1.57-4.1h.74l1,2.69c.11.31.21.66.28.93h0c.07-.27.18-.6.28-.95l.9-2.67Z"
     id="path25"
     style="stroke:#000000;stroke-opacity:1;stroke-width:0.2;stroke-miterlimit:4;stroke-dasharray:none;fill-rule:nonzero" />
  <path
     class="cls-1"
     d="M62.6,32.79a2.11,2.11,0,0,1-2.08,2.35,2,2,0,0,1-2-2.29,2.11,2.11,0,0,1,2.07-2.35,2.06,2.06,0,0,1,2,2.29m-2-1.76c-1,0-1.36.95-1.36,1.8s.54,1.78,1.34,1.78,1.37-.8,1.37-1.8c0-.79-.39-1.78-1.35-1.78"
     id="path27"
     style="stroke:#000000;stroke-opacity:1;stroke-width:0.2;stroke-miterlimit:4;stroke-dasharray:none;fill-rule:nonzero" />
  <rect
     class="cls-1"
     x="65.54"
     y="28.84"
     width="0.67"
     height="6.2"
     id="rect29"
     style="stroke:#000000;stroke-opacity:1;stroke-width:0.2;stroke-miterlimit:4;stroke-dasharray:none;fill-rule:nonzero" />
  <path
     class="cls-1"
     d="M71,35h-.68V32.42c0-.72-.26-1.35-1-1.35a1.21,1.21,0,0,0-1.17,1.26V35h-.67V31.75c0-.46,0-.79,0-1.15H68l0,.72h0a1.57,1.57,0,0,1,1.42-.82c.55,0,1.5.34,1.5,1.84Z"
     id="path31"
     style="stroke:#000000;stroke-opacity:1;stroke-width:0.2;stroke-miterlimit:4;stroke-dasharray:none;fill-rule:nonzero" />
  <path
     class="cls-1"
     d="M74.18,31.28a1.62,1.62,0,0,0-.86-.26.67.67,0,0,0-.75.66c0,.39.26.56.83.81s1.13.66,1.13,1.33-.61,1.31-1.57,1.31a2.36,2.36,0,0,1-1.17-.3l.19-.52a2.11,2.11,0,0,0,1,.3c.59,0,.89-.32.89-.71s-.24-.65-.82-.88c-.75-.3-1.14-.72-1.14-1.26a1.32,1.32,0,0,1,1.45-1.26,2,2,0,0,1,1,.27Z"
     id="path33"
     style="stroke:#000000;stroke-opacity:1;stroke-width:0.2;stroke-miterlimit:4;stroke-dasharray:none;fill-rule:nonzero" />
  <path
     class="cls-1"
     d="M75.74,29.8l.66-.22v1h1.15v.53H76.4V33.7c0,.56.17.87.61.87a1.32,1.32,0,0,0,.45-.06l0,.52a1.79,1.79,0,0,1-.66.1c-1.07,0-1.1-1-1.1-1.45V31.14h-.69v-.53h.69Z"
     id="path35"
     style="stroke:#000000;stroke-opacity:1;stroke-width:0.2;stroke-miterlimit:4;stroke-dasharray:none;fill-rule:nonzero" />
  <path
     class="cls-1"
     d="M78.77,29.83a.46.46,0,0,1,0-.92.43.43,0,0,1,.44.45.44.44,0,0,1-.45.47M79.11,35h-.67V30.61h.67Z"
     id="path37"
     style="stroke:#000000;stroke-opacity:1;stroke-width:0.2;stroke-miterlimit:4;stroke-dasharray:none;fill-rule:nonzero" />
  <path
     class="cls-1"
     d="M80.63,29.8l.67-.22v1h1.15v.53H81.3V33.7c0,.56.17.87.6.87a1.38,1.38,0,0,0,.46-.06l0,.52a1.87,1.87,0,0,1-.66.1c-1.07,0-1.11-1-1.11-1.45V31.14H80v-.53h.68Z"
     id="path39"
     style="stroke:#000000;stroke-opacity:1;stroke-width:0.2;stroke-miterlimit:4;stroke-dasharray:none;fill-rule:nonzero" />
  <path
     class="cls-1"
     d="M86.64,33.86c0,.46,0,.84,0,1.18h-.61l0-.7h0a1.62,1.62,0,0,1-1.42.8c-.67,0-1.46-.38-1.46-1.91V30.61h.68v2.5c0,.86.25,1.46,1,1.46A1.17,1.17,0,0,0,86,33.37V30.61h.67Z"
     id="path41"
     style="stroke:#000000;stroke-opacity:1;stroke-width:0.2;stroke-miterlimit:4;stroke-dasharray:none;fill-rule:nonzero" />
  <path
     class="cls-1"
     d="M88,29.8l.67-.22v1h1.15v.53H88.66V33.7c0,.56.17.87.6.87a1.42,1.42,0,0,0,.46-.06l0,.52a1.87,1.87,0,0,1-.66.1c-1.08,0-1.11-1-1.11-1.45V31.14h-.68v-.53H88Z"
     id="path43"
     style="stroke:#000000;stroke-opacity:1;stroke-width:0.2;stroke-miterlimit:4;stroke-dasharray:none;fill-rule:nonzero" />
  <path
     class="cls-1"
     d="M93.67,34.86a3.27,3.27,0,0,1-1.39.27,2,2,0,0,1-2.07-2.23c0-1.4.78-2.4,2-2.4a1.81,1.81,0,0,1,1.71,2c0,.15,0,.27,0,.37h-3c0,1.23.71,1.7,1.51,1.7a2.87,2.87,0,0,0,1.16-.23Zm-.43-2.46c0-.6-.25-1.38-1.12-1.38s-1.17.77-1.23,1.38Z"
     id="path45"
     style="stroke:#000000;stroke-opacity:1;stroke-width:0.2;stroke-miterlimit:4;stroke-dasharray:none;fill-rule:nonzero" />
  <path
     class="cls-1"
     d="M100.57,32.79a2.11,2.11,0,0,1-2.07,2.35,2.05,2.05,0,0,1-2-2.29,2.11,2.11,0,0,1,2.07-2.35,2,2,0,0,1,2,2.29m-2-1.76c-1,0-1.36.95-1.36,1.8s.55,1.78,1.34,1.78,1.37-.8,1.37-1.8c0-.79-.38-1.78-1.35-1.78"
     id="path47"
     style="stroke:#000000;stroke-opacity:1;stroke-width:0.2;stroke-miterlimit:4;stroke-dasharray:none;fill-rule:nonzero" />
  <path
     class="cls-1"
     d="M101.67,30.61a2.43,2.43,0,0,1,.49-1.78,1.46,1.46,0,0,1,1-.39,1.56,1.56,0,0,1,.66.13l-.11.53a1.26,1.26,0,0,0-.52-.11c-.7,0-.87.65-.87,1.37v.25h1.08v.53h-1.08V35h-.67v-3.9h-.61v-.53Z"
     id="path49"
     style="stroke:#000000;stroke-opacity:1;stroke-width:0.2;stroke-miterlimit:4;stroke-dasharray:none;fill-rule:nonzero" />
  <polygon
     class="cls-1"
     points="109.66 29.42 107.83 29.42 107.83 35.04 107.16 35.04 107.16 29.42 105.34 29.42 105.34 28.85 109.66 28.85 109.66 29.42"
     id="polygon51"
     style="stroke:#000000;stroke-opacity:1;stroke-width:0.2;stroke-miterlimit:4;stroke-dasharray:none;fill-rule:nonzero" />
  <path
     class="cls-1"
     d="M112.8,34.86a3.24,3.24,0,0,1-1.39.27,2,2,0,0,1-2.06-2.23c0-1.4.78-2.4,2-2.4a1.81,1.81,0,0,1,1.72,2,3.57,3.57,0,0,1,0,.37h-3c0,1.23.71,1.7,1.51,1.7a2.83,2.83,0,0,0,1.16-.23Zm-.43-2.46c0-.6-.24-1.38-1.11-1.38A1.36,1.36,0,0,0,110,32.4Z"
     id="path53"
     style="stroke:#000000;stroke-opacity:1;stroke-width:0.2;stroke-miterlimit:4;stroke-dasharray:none;fill-rule:nonzero" />
  <path
     class="cls-1"
     d="M117.2,34.88a2.76,2.76,0,0,1-1.2.25,2.06,2.06,0,0,1-2.11-2.26,2.22,2.22,0,0,1,2.27-2.37,2.43,2.43,0,0,1,1.07.24l-.17.54a1.89,1.89,0,0,0-.92-.22,1.59,1.59,0,0,0-1.56,1.77,1.57,1.57,0,0,0,1.54,1.75,2.19,2.19,0,0,0,1-.22Z"
     id="path55"
     style="stroke:#000000;stroke-opacity:1;stroke-width:0.2;stroke-miterlimit:4;stroke-dasharray:none;fill-rule:nonzero" />
  <path
     class="cls-1"
     d="M121.85,35h-.67V32.42c0-.72-.26-1.35-1-1.35A1.21,1.21,0,0,0,119,32.32V35h-.67V28.53H119v2.76h0a1.62,1.62,0,0,1,1.37-.79c.55,0,1.48.34,1.48,1.84Z"
     id="path57"
     style="stroke:#000000;stroke-opacity:1;stroke-width:0.2;stroke-miterlimit:4;stroke-dasharray:none;fill-rule:nonzero" />
  <path
     class="cls-1"
     d="M126.71,35H126V32.42c0-.72-.26-1.35-1-1.35a1.2,1.2,0,0,0-1.16,1.26V35h-.68V31.75c0-.46,0-.79,0-1.15h.6l0,.72h0a1.58,1.58,0,0,1,1.42-.82c.55,0,1.5.34,1.5,1.84Z"
     id="path59"
     style="stroke:#000000;stroke-opacity:1;stroke-width:0.2;stroke-miterlimit:4;stroke-dasharray:none;fill-rule:nonzero" />
  <path
     class="cls-1"
     d="M131.78,32.79a2.11,2.11,0,0,1-2.07,2.35,2.05,2.05,0,0,1-2-2.29,2.11,2.11,0,0,1,2.07-2.35,2,2,0,0,1,2,2.29m-2-1.76c-1,0-1.36.95-1.36,1.8s.55,1.78,1.34,1.78,1.37-.8,1.37-1.8c0-.79-.38-1.78-1.35-1.78"
     id="path61"
     style="stroke:#000000;stroke-opacity:1;stroke-width:0.2;stroke-miterlimit:4;stroke-dasharray:none;fill-rule:nonzero" />
  <rect
     class="cls-1"
     x="132.64"
     y="28.53"
     width="0.67"
     height="6.51"
     id="rect63"
     style="stroke:#000000;stroke-opacity:1;stroke-width:0.2;stroke-miterlimit:4;stroke-dasharray:none;fill-rule:nonzero" />
  <path
     class="cls-1"
     d="M138.42,32.79a2.11,2.11,0,0,1-2.07,2.35,2.05,2.05,0,0,1-2-2.29,2.11,2.11,0,0,1,2.08-2.35,2,2,0,0,1,2,2.29m-2-1.76c-1,0-1.36.95-1.36,1.8s.55,1.78,1.35,1.78,1.36-.8,1.36-1.8c0-.79-.38-1.78-1.35-1.78"
     id="path65"
     style="stroke:#000000;stroke-opacity:1;stroke-width:0.2;stroke-miterlimit:4;stroke-dasharray:none;fill-rule:nonzero" />
  <path
     class="cls-1"
     d="M143.05,30.6c0,.32,0,.68,0,1.22v2.59c0,.77,0,2.54-2.11,2.54a2.76,2.76,0,0,1-1.4-.34l.18-.53a2.48,2.48,0,0,0,1.25.33c.81,0,1.41-.43,1.41-1.6v-.53h0a1.53,1.53,0,0,1-1.38.75,2,2,0,0,1-1.81-2.18,2.09,2.09,0,0,1,1.92-2.35,1.41,1.41,0,0,1,1.34.77h0l0-.67Zm-.72,1.71a1.2,1.2,0,0,0-1.18-1.26c-.78,0-1.33.69-1.33,1.76s.46,1.69,1.32,1.69a1.22,1.22,0,0,0,1.19-1.3Z"
     id="path67"
     style="stroke:#000000;stroke-opacity:1;stroke-width:0.2;stroke-miterlimit:4;stroke-dasharray:none;fill-rule:nonzero" />
  <path
     class="cls-1"
     d="M147.69,30.61l-1.18,3.14a7.26,7.26,0,0,1-1.46,2.79,2.23,2.23,0,0,1-.9.52l-.19-.57a2.53,2.53,0,0,0,1.43-1.59.44.44,0,0,0,0-.19l-1.57-4.1h.74l1,2.69c.12.31.21.66.29.93h0c.07-.27.18-.6.29-.95l.89-2.67Z"
     id="path69"
     style="stroke:#000000;stroke-opacity:1;stroke-width:0.2;stroke-miterlimit:4;stroke-dasharray:none;fill-rule:nonzero" />
  <path
     class="cls-1"
     d="M6.88,36H35.47V7.42H6.88Zm27.75-.81H7.72l2.73-2.77V11L7.72,8.22H34.63L31.89,11V32.43ZM28,26.48c.05.15.05.2,0,.22s-.09,0-.17-.12h0a10.17,10.17,0,0,1-1-2.42,9.76,9.76,0,0,1-.3-2.71c0-2-.54-2.22-2.09-2.35-1.94-.16-2.13,1-2.2,1.38A4.91,4.91,0,0,0,22,22.91a7.76,7.76,0,0,1,.68,1.23,42.2,42.2,0,0,1,1.72,5.69c0,.17.06.22,0,.24s-.09,0-.17-.16c-.57-1.36-1.53-3.58-1.86-4.32-.47-1.07-1-1.31-1.22-1.31s-.74.24-1.22,1.31c-.33.74-1.29,3-1.85,4.32-.08.18-.15.18-.18.16s0-.07,0-.24a42.1,42.1,0,0,1,1.73-5.69,7.08,7.08,0,0,1,.67-1.23,5,5,0,0,0-.17-2.45c-.07-.36-.27-1.54-2.2-1.38-1.56.13-2.1.36-2.1,2.35a9.93,9.93,0,0,1-.29,2.71,10.77,10.77,0,0,1-1,2.42h0c-.08.13-.14.13-.17.12s0-.07,0-.22a9.68,9.68,0,0,0,.54-3c0-.89-.1-3.92,0-4.52s-.07-1.46,1.59-1.94c0,0,1-.29,2-.46.43-.11,1.06-.12,1.29-.58a10.66,10.66,0,0,1,.94-2.45,1.3,1.3,0,0,0,.2-.29c.08-.18.18-.21.19-.21s.12,0,.2.21a1.3,1.3,0,0,0,.2.29A11.14,11.14,0,0,1,22.51,16c.22.46.86.47,1.28.58a20.08,20.08,0,0,1,2,.46c1.67.48,1.49,1.35,1.6,1.94s0,3.63,0,4.52A9.38,9.38,0,0,0,28,26.48Z"
     id="path71"
     style="stroke:#000000;stroke-opacity:1;stroke-width:0.2;stroke-miterlimit:4;stroke-dasharray:none;fill-rule:nonzero" />
  <rect
     class="cls-2"
     width="155.28"
     height="43.14"
     id="rect73"
     style="stroke:#000000;stroke-opacity:1;stroke-width:0.6;stroke-miterlimit:4;stroke-dasharray:none;fill-rule:nonzero" />
</svg>
