<?xml version="1.0" encoding="UTF-8" standalone="no"?>
<svg
   xmlns:dc="http://purl.org/dc/elements/1.1/"
   xmlns:cc="http://creativecommons.org/ns#"
   xmlns:rdf="http://www.w3.org/1999/02/22-rdf-syntax-ns#"
   xmlns:svg="http://www.w3.org/2000/svg"
   xmlns="http://www.w3.org/2000/svg"
   xmlns:sodipodi="http://sodipodi.sourceforge.net/DTD/sodipodi-0.dtd"
   xmlns:inkscape="http://www.inkscape.org/namespaces/inkscape"
   version="1.1"
   id="svg2"
   xml:space="preserve"
   width="131.77882"
   height="131.77615"
   sodipodi:docname="small-logo.svg"
   inkscape:version="0.92.5 (2060ec1f9f, 2020-04-08)"><metadata
     id="metadata8"><rdf:RDF><cc:Work
         rdf:about=""><dc:format>image/svg+xml</dc:format><dc:type
           rdf:resource="http://purl.org/dc/dcmitype/StillImage" /><dc:title></dc:title></cc:Work></rdf:RDF></metadata><defs
     id="defs6"><clipPath
       clipPathUnits="userSpaceOnUse"
       id="clipPath76"><path
         d="M 0,842 H 595 V 0 H 0 Z"
         id="path74"
         inkscape:connector-curvature="0" /></clipPath><clipPath
       id="clipPath76-3"
       clipPathUnits="userSpaceOnUse"><path
         id="path74-6"
         d="M 0,842 H 595 V 0 H 0 Z"
         inkscape:connector-curvature="0" /></clipPath></defs><sodipodi:namedview
     fit-margin-bottom="0"
     fit-margin-right="0"
     fit-margin-left="0"
     fit-margin-top="0"
     inkscape:document-rotation="0"
     pagecolor="#ffffff"
     bordercolor="#666666"
     borderopacity="1"
     objecttolerance="10"
     gridtolerance="10"
     guidetolerance="10"
     inkscape:pageopacity="0"
     inkscape:pageshadow="2"
     inkscape:window-width="1600"
     inkscape:window-height="835"
     id="namedview4"
     showgrid="false"
     inkscape:snap-global="true"
     inkscape:zoom="0.6034286"
     inkscape:cx="-52.518357"
     inkscape:cy="72.482416"
     inkscape:window-x="0"
     inkscape:window-y="0"
     inkscape:window-maximized="1"
     inkscape:current-layer="g10" /><g
     id="g10"
     inkscape:groupmode="layer"
     inkscape:label="vi_manual"
     transform="matrix(1.3333333,0,0,-1.3333333,-199.2076,354.22895)"><g
       clip-path="url(#clipPath76-3)"
       id="g72"
       transform="matrix(0.33330001,0,0,0.33330001,99.608779,111.23196)"><g
         transform="translate(368.1417,265.6366)"
         id="g78"><path
           id="path80"
           style="fill:#231f20;fill-opacity:1;fill-rule:nonzero;stroke:none"
           d="m 0,0 c 0.552,-1.519 0.552,-2.039 0.206,-2.241 -0.324,-0.189 -0.909,-0.133 -1.752,1.191 -0.032,0.051 -0.063,0.102 -0.094,0.153 -0.019,0.031 -0.038,0.061 -0.056,0.093 -5.573,9.22 -9.879,21.243 -10.738,25.115 -1.074,4.844 -3.004,10.991 -3.04,28.116 -0.044,20.549 -5.624,23.026 -21.738,24.345 -20.11,1.646 -22.109,-10.55 -22.853,-14.295 -2.395,-12.041 -4.008,-22.592 -1.82,-25.471 2.997,-3.982 3.895,-6.471 7.001,-12.693 5.401,-10.8 13.568,-41.778 17.909,-59.083 0.434,-1.734 0.571,-2.282 0.226,-2.484 -0.347,-0.202 -0.985,-0.227 -1.813,1.725 v 0 c -5.892,14.094 -15.797,37.115 -19.251,44.811 -4.938,11.003 -10.656,13.532 -12.652,13.532 -10e-4,-0.001 -0.003,-0.001 -0.005,-0.002 -0.001,10e-4 -0.003,10e-4 -0.005,0.002 -1.995,0 -7.713,-2.529 -12.652,-13.532 -3.454,-7.696 -13.359,-30.717 -19.251,-44.811 v 0 c -0.827,-1.952 -1.466,-1.927 -1.813,-1.725 -0.344,0.202 -0.207,0.75 0.227,2.484 4.34,17.305 12.507,48.283 17.909,59.083 3.106,6.222 4.003,8.711 7,12.693 2.188,2.879 0.575,13.43 -1.819,25.471 -0.745,3.745 -2.744,15.941 -22.853,14.295 -16.114,-1.319 -21.695,-3.796 -21.739,-24.345 -0.036,-17.125 -1.965,-23.272 -3.039,-28.116 -0.859,-3.872 -5.166,-15.895 -10.738,-25.115 -0.019,-0.032 -0.038,-0.062 -0.056,-0.093 -0.032,-0.051 -0.063,-0.102 -0.094,-0.153 -0.844,-1.324 -1.429,-1.38 -1.752,-1.191 -0.347,0.202 -0.347,0.722 0.205,2.241 v 0 c 2.211,6.231 5.586,18.552 5.586,30.797 0,9.207 -0.975,40.713 0.095,46.855 1.078,6.154 -0.696,15.161 16.575,20.16 0,0 10.398,3.04 21.029,4.782 4.44,1.124 11.022,1.216 13.312,6.001 3.314,6.943 4.267,18.781 9.782,25.423 0.527,0.634 1.442,1.611 2.058,2.989 0.831,1.857 1.881,2.173 2.033,2.173 0.152,0 1.202,-0.316 2.033,-2.173 0.616,-1.378 1.532,-2.355 2.058,-2.989 5.516,-6.642 6.468,-18.48 9.782,-25.423 2.291,-4.785 8.872,-4.877 13.312,-6.001 10.631,-1.742 21.03,-4.782 21.03,-4.782 C -4.984,92.813 -6.759,83.806 -5.681,77.652 -4.611,71.51 -5.586,40.004 -5.586,30.797 -5.586,18.552 -2.211,6.231 0,0 Z m 69.115,-90.496 h -279.164 l 28.382,28.762 v 222.401 l -28.382,28.764 H 69.115 L 40.734,160.667 V -61.734 Z m -287.851,-8.301 H 77.796 v 296.526 h -296.532 z"
           inkscape:connector-curvature="0" /></g></g></g></svg>